G04 #@! TF.GenerationSoftware,KiCad,Pcbnew,(2017-11-24 revision 9df938484)-makepkg*
G04 #@! TF.CreationDate,2018-02-06T21:34:55+01:00*
G04 #@! TF.ProjectId,DigiSynth,4469676953796E74682E6B696361645F,rev?*
G04 #@! TF.SameCoordinates,Original*
G04 #@! TF.FileFunction,Legend,Bot*
G04 #@! TF.FilePolarity,Positive*
%FSLAX46Y46*%
G04 Gerber Fmt 4.6, Leading zero omitted, Abs format (unit mm)*
G04 Created by KiCad (PCBNEW (2017-11-24 revision 9df938484)-makepkg) date 02/06/18 21:34:55*
%MOMM*%
%LPD*%
G01*
G04 APERTURE LIST*
%ADD10C,0.300000*%
%ADD11C,0.150000*%
%ADD12C,0.304800*%
%ADD13C,0.120000*%
G04 APERTURE END LIST*
D10*
X106132142Y-43858571D02*
X106846428Y-43858571D01*
X106846428Y-42358571D01*
X105632142Y-43858571D02*
X105632142Y-42358571D01*
X104917857Y-43858571D02*
X104917857Y-42358571D01*
X104060714Y-43858571D01*
X104060714Y-42358571D01*
X103346428Y-43072857D02*
X102846428Y-43072857D01*
X102632142Y-43858571D02*
X103346428Y-43858571D01*
X103346428Y-42358571D01*
X102632142Y-42358571D01*
X106850714Y-41318571D02*
X107565000Y-41318571D01*
X107565000Y-39818571D01*
X106850714Y-36238571D02*
X107350714Y-35524285D01*
X107707857Y-36238571D02*
X107707857Y-34738571D01*
X107136428Y-34738571D01*
X106993571Y-34810000D01*
X106922142Y-34881428D01*
X106850714Y-35024285D01*
X106850714Y-35238571D01*
X106922142Y-35381428D01*
X106993571Y-35452857D01*
X107136428Y-35524285D01*
X107707857Y-35524285D01*
X106850714Y-32428571D02*
X107565000Y-32428571D01*
X107565000Y-30928571D01*
X106850714Y-27348571D02*
X107350714Y-26634285D01*
X107707857Y-27348571D02*
X107707857Y-25848571D01*
X107136428Y-25848571D01*
X106993571Y-25920000D01*
X106922142Y-25991428D01*
X106850714Y-26134285D01*
X106850714Y-26348571D01*
X106922142Y-26491428D01*
X106993571Y-26562857D01*
X107136428Y-26634285D01*
X107707857Y-26634285D01*
X107223571Y-29888571D02*
X107223571Y-28388571D01*
X107223571Y-29102857D02*
X106366428Y-29102857D01*
X106366428Y-29888571D02*
X106366428Y-28388571D01*
X105652142Y-29888571D02*
X105652142Y-28388571D01*
X105080714Y-28388571D01*
X104937857Y-28460000D01*
X104866428Y-28531428D01*
X104795000Y-28674285D01*
X104795000Y-28888571D01*
X104866428Y-29031428D01*
X104937857Y-29102857D01*
X105080714Y-29174285D01*
X105652142Y-29174285D01*
D11*
X95425000Y-15955000D02*
X95425000Y-18955000D01*
X101425000Y-15955000D02*
X95425000Y-15955000D01*
X101425000Y-18955000D02*
X101425000Y-15955000D01*
X94425000Y-18955000D02*
X98425000Y-18955000D01*
X94425000Y-31205000D02*
X94425000Y-18955000D01*
X102425000Y-31205000D02*
X94425000Y-31205000D01*
X102425000Y-18955000D02*
X102425000Y-31205000D01*
X98425000Y-18955000D02*
X102425000Y-18955000D01*
X99060000Y-27305000D02*
G75*
G03X99060000Y-27305000I-635000J0D01*
G01*
X99060000Y-20955000D02*
G75*
G03X99060000Y-20955000I-635000J0D01*
G01*
X80820000Y-15955000D02*
X80820000Y-18955000D01*
X86820000Y-15955000D02*
X80820000Y-15955000D01*
X86820000Y-18955000D02*
X86820000Y-15955000D01*
X79820000Y-18955000D02*
X83820000Y-18955000D01*
X79820000Y-31205000D02*
X79820000Y-18955000D01*
X87820000Y-31205000D02*
X79820000Y-31205000D01*
X87820000Y-18955000D02*
X87820000Y-31205000D01*
X83820000Y-18955000D02*
X87820000Y-18955000D01*
X84455000Y-27305000D02*
G75*
G03X84455000Y-27305000I-635000J0D01*
G01*
X84455000Y-20955000D02*
G75*
G03X84455000Y-20955000I-635000J0D01*
G01*
X38100000Y-17780000D02*
X38100000Y-16510000D01*
X38100000Y-16510000D02*
X30480000Y-16510000D01*
X30480000Y-16510000D02*
X30480000Y-17780000D01*
X39370000Y-29210000D02*
X39370000Y-33020000D01*
X39370000Y-33020000D02*
X36830000Y-33020000D01*
X36830000Y-33020000D02*
X36830000Y-29210000D01*
X36830000Y-29210000D02*
X39370000Y-29210000D01*
X38100000Y-22860000D02*
X30480000Y-22860000D01*
X30480000Y-22860000D02*
X30480000Y-17780000D01*
X38100000Y-22860000D02*
X38100000Y-17780000D01*
X39370000Y-24130000D02*
X39370000Y-26670000D01*
X39370000Y-26670000D02*
X36830000Y-26670000D01*
X36830000Y-26670000D02*
X36830000Y-24130000D01*
X36830000Y-24130000D02*
X39370000Y-24130000D01*
X31750000Y-50800000D02*
X36830000Y-50800000D01*
X36830000Y-50800000D02*
X36830000Y-48260000D01*
X36830000Y-48260000D02*
X31750000Y-48260000D01*
X31750000Y-48260000D02*
X31750000Y-50800000D01*
X39370000Y-44450000D02*
X29210000Y-44450000D01*
X29210000Y-35560000D02*
X39370000Y-35560000D01*
X29210000Y-44450000D02*
X29210000Y-35560000D01*
X39370000Y-44450000D02*
X39370000Y-35560000D01*
X25400000Y-17780000D02*
X25400000Y-53340000D01*
X25400000Y-53340000D02*
X43180000Y-53340000D01*
X43180000Y-53340000D02*
X43180000Y-17780000D01*
X43180000Y-17780000D02*
X25400000Y-17780000D01*
D12*
X57040780Y-17919700D02*
X76540360Y-17919700D01*
X75039220Y-17670780D02*
X57040780Y-17670780D01*
X55539640Y-17419320D02*
X75039220Y-17419320D01*
X57040780Y-35669220D02*
X57040780Y-18669000D01*
X57040780Y-35669220D02*
X57541160Y-36169600D01*
X57541160Y-36169600D02*
X60040520Y-36169600D01*
X60040520Y-36169600D02*
X60540900Y-35669220D01*
X60540900Y-35669220D02*
X60540900Y-33670240D01*
X60540900Y-33670240D02*
X64041020Y-33670240D01*
X75039220Y-35669220D02*
X75039220Y-18669000D01*
X75039220Y-35669220D02*
X74538840Y-36169600D01*
X74538840Y-36169600D02*
X72539860Y-36169600D01*
X72539860Y-36169600D02*
X72039480Y-36169600D01*
X72039480Y-36169600D02*
X71539100Y-35669220D01*
X71539100Y-35669220D02*
X71539100Y-33670240D01*
X71539100Y-33670240D02*
X68038980Y-33670240D01*
X64538860Y-36169600D02*
X64041020Y-35669220D01*
X64041020Y-35669220D02*
X64041020Y-33670240D01*
X64538860Y-36169600D02*
X67541140Y-36169600D01*
X67541140Y-36169600D02*
X68038980Y-35669220D01*
X68038980Y-35669220D02*
X68038980Y-33670240D01*
X76540360Y-17670780D02*
X75039220Y-17670780D01*
X75039220Y-17670780D02*
X75039220Y-17170400D01*
X75039220Y-17170400D02*
X55539640Y-17170400D01*
X55539640Y-17670780D02*
X57040780Y-17670780D01*
X57040780Y-17670780D02*
X57040780Y-18171160D01*
X57040780Y-18171160D02*
X76540360Y-18171160D01*
X75039220Y-18669000D02*
X74538840Y-18669000D01*
X57040780Y-18669000D02*
X57541160Y-18669000D01*
X74538840Y-18171160D02*
X74538840Y-18669000D01*
X57541160Y-18669000D02*
X57541160Y-18171160D01*
X55539640Y-17170400D02*
X55539640Y-17670780D01*
X76540360Y-18171160D02*
X76540360Y-17670780D01*
D13*
X51680000Y-24415000D02*
X51680000Y-23215000D01*
X49920000Y-23215000D02*
X49920000Y-24415000D01*
X50030000Y-28790000D02*
X49030000Y-28790000D01*
X49030000Y-27090000D02*
X50030000Y-27090000D01*
D11*
X102627380Y-24871666D02*
X103341666Y-24871666D01*
X103484523Y-24824047D01*
X103579761Y-24728809D01*
X103627380Y-24585952D01*
X103627380Y-24490714D01*
X102722619Y-25300238D02*
X102675000Y-25347857D01*
X102627380Y-25443095D01*
X102627380Y-25681190D01*
X102675000Y-25776428D01*
X102722619Y-25824047D01*
X102817857Y-25871666D01*
X102913095Y-25871666D01*
X103055952Y-25824047D01*
X103627380Y-25252619D01*
X103627380Y-25871666D01*
X88022380Y-24871666D02*
X88736666Y-24871666D01*
X88879523Y-24824047D01*
X88974761Y-24728809D01*
X89022380Y-24585952D01*
X89022380Y-24490714D01*
X89022380Y-25871666D02*
X89022380Y-25300238D01*
X89022380Y-25585952D02*
X88022380Y-25585952D01*
X88165238Y-25490714D01*
X88260476Y-25395476D01*
X88308095Y-25300238D01*
X24677619Y-36321904D02*
X23868095Y-36321904D01*
X23772857Y-36274285D01*
X23725238Y-36226666D01*
X23677619Y-36131428D01*
X23677619Y-35940952D01*
X23725238Y-35845714D01*
X23772857Y-35798095D01*
X23868095Y-35750476D01*
X24677619Y-35750476D01*
X23677619Y-34750476D02*
X23677619Y-35321904D01*
X23677619Y-35036190D02*
X24677619Y-35036190D01*
X24534761Y-35131428D01*
X24439523Y-35226666D01*
X24391904Y-35321904D01*
X30273809Y-29757619D02*
X30845238Y-29757619D01*
X30559523Y-28757619D02*
X30559523Y-29757619D01*
X31083333Y-29757619D02*
X31702380Y-29757619D01*
X31369047Y-29376666D01*
X31511904Y-29376666D01*
X31607142Y-29329047D01*
X31654761Y-29281428D01*
X31702380Y-29186190D01*
X31702380Y-28948095D01*
X31654761Y-28852857D01*
X31607142Y-28805238D01*
X31511904Y-28757619D01*
X31226190Y-28757619D01*
X31130952Y-28805238D01*
X31083333Y-28852857D01*
X32130952Y-28852857D02*
X32178571Y-28805238D01*
X32130952Y-28757619D01*
X32083333Y-28805238D01*
X32130952Y-28852857D01*
X32130952Y-28757619D01*
X33130952Y-28757619D02*
X32559523Y-28757619D01*
X32845238Y-28757619D02*
X32845238Y-29757619D01*
X32750000Y-29614761D01*
X32654761Y-29519523D01*
X32559523Y-29471904D01*
D12*
X77216000Y-20501428D02*
X77216000Y-21590000D01*
X77288571Y-21807714D01*
X77433714Y-21952857D01*
X77651428Y-22025428D01*
X77796571Y-22025428D01*
X76635428Y-20501428D02*
X75692000Y-20501428D01*
X76200000Y-21082000D01*
X75982285Y-21082000D01*
X75837142Y-21154571D01*
X75764571Y-21227142D01*
X75692000Y-21372285D01*
X75692000Y-21735142D01*
X75764571Y-21880285D01*
X75837142Y-21952857D01*
X75982285Y-22025428D01*
X76417714Y-22025428D01*
X76562857Y-21952857D01*
X76635428Y-21880285D01*
X69269428Y-38360168D02*
X69269428Y-36836168D01*
X68906571Y-36836168D01*
X68688857Y-36908740D01*
X68543714Y-37053882D01*
X68471142Y-37199025D01*
X68398571Y-37489311D01*
X68398571Y-37707025D01*
X68471142Y-37997311D01*
X68543714Y-38142454D01*
X68688857Y-38287597D01*
X68906571Y-38360168D01*
X69269428Y-38360168D01*
X67745428Y-38360168D02*
X67745428Y-36836168D01*
X67019714Y-38360168D02*
X67019714Y-36836168D01*
X66148857Y-38360168D01*
X66148857Y-36836168D01*
X65423142Y-37779597D02*
X64262000Y-37779597D01*
X62810571Y-36836168D02*
X63536285Y-36836168D01*
X63608857Y-37561882D01*
X63536285Y-37489311D01*
X63391142Y-37416740D01*
X63028285Y-37416740D01*
X62883142Y-37489311D01*
X62810571Y-37561882D01*
X62738000Y-37707025D01*
X62738000Y-38069882D01*
X62810571Y-38215025D01*
X62883142Y-38287597D01*
X63028285Y-38360168D01*
X63391142Y-38360168D01*
X63536285Y-38287597D01*
X63608857Y-38215025D01*
D11*
X49602380Y-23172142D02*
X49126190Y-22838809D01*
X49602380Y-22600714D02*
X48602380Y-22600714D01*
X48602380Y-22981666D01*
X48650000Y-23076904D01*
X48697619Y-23124523D01*
X48792857Y-23172142D01*
X48935714Y-23172142D01*
X49030952Y-23124523D01*
X49078571Y-23076904D01*
X49126190Y-22981666D01*
X49126190Y-22600714D01*
X49602380Y-24124523D02*
X49602380Y-23553095D01*
X49602380Y-23838809D02*
X48602380Y-23838809D01*
X48745238Y-23743571D01*
X48840476Y-23648333D01*
X48888095Y-23553095D01*
X49030952Y-24695952D02*
X48983333Y-24600714D01*
X48935714Y-24553095D01*
X48840476Y-24505476D01*
X48792857Y-24505476D01*
X48697619Y-24553095D01*
X48650000Y-24600714D01*
X48602380Y-24695952D01*
X48602380Y-24886428D01*
X48650000Y-24981666D01*
X48697619Y-25029285D01*
X48792857Y-25076904D01*
X48840476Y-25076904D01*
X48935714Y-25029285D01*
X48983333Y-24981666D01*
X49030952Y-24886428D01*
X49030952Y-24695952D01*
X49078571Y-24600714D01*
X49126190Y-24553095D01*
X49221428Y-24505476D01*
X49411904Y-24505476D01*
X49507142Y-24553095D01*
X49554761Y-24600714D01*
X49602380Y-24695952D01*
X49602380Y-24886428D01*
X49554761Y-24981666D01*
X49507142Y-25029285D01*
X49411904Y-25076904D01*
X49221428Y-25076904D01*
X49126190Y-25029285D01*
X49078571Y-24981666D01*
X49030952Y-24886428D01*
X48887142Y-26082857D02*
X48839523Y-26035238D01*
X48696666Y-25987619D01*
X48601428Y-25987619D01*
X48458571Y-26035238D01*
X48363333Y-26130476D01*
X48315714Y-26225714D01*
X48268095Y-26416190D01*
X48268095Y-26559047D01*
X48315714Y-26749523D01*
X48363333Y-26844761D01*
X48458571Y-26940000D01*
X48601428Y-26987619D01*
X48696666Y-26987619D01*
X48839523Y-26940000D01*
X48887142Y-26892380D01*
X49268095Y-26892380D02*
X49315714Y-26940000D01*
X49410952Y-26987619D01*
X49649047Y-26987619D01*
X49744285Y-26940000D01*
X49791904Y-26892380D01*
X49839523Y-26797142D01*
X49839523Y-26701904D01*
X49791904Y-26559047D01*
X49220476Y-25987619D01*
X49839523Y-25987619D01*
X50744285Y-26987619D02*
X50268095Y-26987619D01*
X50220476Y-26511428D01*
X50268095Y-26559047D01*
X50363333Y-26606666D01*
X50601428Y-26606666D01*
X50696666Y-26559047D01*
X50744285Y-26511428D01*
X50791904Y-26416190D01*
X50791904Y-26178095D01*
X50744285Y-26082857D01*
X50696666Y-26035238D01*
X50601428Y-25987619D01*
X50363333Y-25987619D01*
X50268095Y-26035238D01*
X50220476Y-26082857D01*
X110823333Y-33107380D02*
X110823333Y-33821666D01*
X110870952Y-33964523D01*
X110966190Y-34059761D01*
X111109047Y-34107380D01*
X111204285Y-34107380D01*
X109918571Y-33440714D02*
X109918571Y-34107380D01*
X110156666Y-33059761D02*
X110394761Y-33774047D01*
X109775714Y-33774047D01*
X109553333Y-23792380D02*
X109553333Y-24506666D01*
X109600952Y-24649523D01*
X109696190Y-24744761D01*
X109839047Y-24792380D01*
X109934285Y-24792380D01*
X108600952Y-23792380D02*
X109077142Y-23792380D01*
X109124761Y-24268571D01*
X109077142Y-24220952D01*
X108981904Y-24173333D01*
X108743809Y-24173333D01*
X108648571Y-24220952D01*
X108600952Y-24268571D01*
X108553333Y-24363809D01*
X108553333Y-24601904D01*
X108600952Y-24697142D01*
X108648571Y-24744761D01*
X108743809Y-24792380D01*
X108981904Y-24792380D01*
X109077142Y-24744761D01*
X109124761Y-24697142D01*
M02*
