M48
;DRILL file {KiCad (2017-11-24 revision 9df938484)-makepkg} date 02/06/18 17:50:21
;FORMAT={3:3/ absolute / metric / suppress leading zeros}
FMAT,2
METRIC,TZ
T1C0.400
T2C0.500
T3C0.800
T4C0.900
T5C1.000
T6C1.100
T7C1.300
T8C1.397
T9C1.300
T10C1.397
T11C2.000
T12C3.000
%
G90
G05
M71
T1
X18415Y-104140
X19050Y-46990
X19050Y-50165
X19050Y-71755
X20320Y-95250
X20955Y-27305
X20955Y-32385
X21590Y-67310
X21590Y-73025
X21590Y-99695
X23495Y-95885
X23495Y-102870
X24765Y-86995
X24765Y-109855
X24855Y-38735
X26035Y-64135
X26727Y-86977
X26760Y-77470
X29845Y-84455
X30480Y-55245
X30480Y-88900
X30480Y-109855
X31115Y-84455
X31115Y-87630
X32385Y-65950
X33020Y-97790
X33655Y-91440
X34290Y-20955
X34925Y-70485
X35560Y-76835
X35560Y-89535
X36093Y-28030
X36105Y-47625
X36195Y-84455
X36195Y-92710
X36830Y-91440
X36830Y-102235
X37465Y-80645
X37465Y-97155
X37465Y-109855
X37555Y-28575
X38190Y-49530
X38735Y-34925
X38735Y-40640
X38735Y-55245
X39370Y-58420
X39370Y-88265
X40005Y-26670
X40005Y-67945
X41910Y-86360
X44450Y-40005
X44450Y-53975
X45085Y-44450
X45720Y-50800
X45810Y-45720
X46595Y-30480
X47244Y-29210
X48260Y-26670
X49530Y-24130
X49530Y-57150
X50165Y-22860
X51562Y-26162
X52070Y-36195
X52070Y-38100
X52070Y-51435
X52070Y-76835
X53975Y-32385
X53975Y-71755
X54010Y-46265
X55880Y-90170
X56515Y-52070
X57785Y-85090
X59690Y-85090
X60325Y-53975
X60960Y-88900
X61595Y-95250
X62230Y-110490
X62865Y-28575
X63500Y-23495
X63500Y-73025
X64770Y-43180
X67310Y-32385
X67945Y-40640
X68580Y-43180
X69215Y-48895
X69850Y-77470
X71120Y-23495
X73660Y-34290
X74930Y-72390
X75565Y-90170
X76200Y-26670
X78105Y-65405
X78105Y-84455
X80010Y-45720
X81280Y-19685
X81280Y-44450
X81915Y-59690
X83185Y-102235
X83185Y-106045
X83820Y-37465
X84455Y-28575
X84455Y-60960
X86995Y-44450
X87630Y-37465
X88900Y-19050
X88900Y-24130
X91440Y-33020
X91440Y-66675
X92075Y-83185
X92710Y-62230
X94615Y-33020
X95885Y-30480
X96520Y-20320
X97790Y-24130
X98425Y-52705
X100330Y-24765
X100965Y-19685
X106045Y-85090
X106680Y-27305
X107315Y-59690
X108585Y-47625
T2
X34290Y-25400
X34290Y-29210
T3
X26670Y-93980
X26670Y-96520
X26670Y-99060
X26670Y-101600
X26670Y-104140
X26670Y-106680
X26670Y-109220
X26670Y-111760
X34290Y-93980
X34290Y-96520
X34290Y-99060
X34290Y-101600
X34290Y-104140
X34290Y-106680
X34290Y-109220
X34290Y-111760
X45720Y-20320
X45720Y-22860
X45720Y-25400
X45720Y-27940
X53340Y-20320
X53340Y-22860
X53340Y-25400
X53340Y-27940
T4
X20320Y-59690
X22860Y-59690
X46990Y-41910
X49530Y-41910
X20320Y-80010
X22860Y-80010
X85090Y-82550
X87630Y-82550
X20320Y-90170
X22860Y-90170
X20320Y-54610
X22860Y-54610
X85090Y-55880
X87630Y-55880
X20320Y-64770
X22860Y-64770
X20320Y-41910
X22860Y-41910
X57150Y-109220
X59690Y-109220
X20320Y-85090
X22860Y-85090
T5
X67390Y-90170
X69890Y-90170
X72390Y-90170
X73740Y-46990
X76240Y-46990
X78740Y-46990
X44530Y-68580
X47030Y-68580
X49530Y-68580
X109220Y-35560
X109220Y-38100
X109220Y-40640
X96600Y-46990
X99100Y-46990
X101600Y-46990
X99140Y-80010
X101640Y-80010
X104140Y-80010
X67390Y-68580
X69890Y-68580
X72390Y-68580
X109220Y-26670
X109220Y-29210
X109220Y-31750
X44450Y-96520
X46950Y-96520
X49450Y-96520
X67310Y-96520
X69810Y-96520
X72310Y-96520
X44530Y-90170
X47030Y-90170
X49530Y-90170
X95250Y-92710
X97750Y-92710
X100250Y-92710
T6
X95250Y-53340
X95250Y-57840
X101750Y-53340
X101750Y-57840
X28520Y-81280
X28520Y-87780
X33020Y-81280
X33020Y-87780
X54610Y-39370
X54610Y-43870
X61110Y-39370
X61110Y-43870
X26670Y-19050
X26670Y-21590
X26670Y-24130
X26670Y-26670
X26670Y-29210
X26670Y-31750
X26670Y-34290
X26670Y-36830
X26670Y-39370
X26670Y-41910
X26670Y-44450
X26670Y-46990
X26670Y-49530
X26670Y-52070
X29210Y-21590
X29210Y-26670
X29210Y-29210
X29210Y-31750
X29210Y-52070
X31750Y-34290
X31750Y-36830
X31750Y-39370
X31750Y-41910
X31750Y-44450
X31750Y-46990
X31750Y-49530
X31750Y-52070
X34290Y-34290
X34290Y-36830
X34290Y-39370
X34290Y-41910
X34290Y-44450
X34290Y-46990
X34290Y-49530
X34290Y-52070
X36830Y-52070
X39370Y-52070
X41910Y-19050
X41910Y-21590
X41910Y-24130
X41910Y-26670
X41910Y-29210
X41910Y-31750
X41910Y-34290
X41910Y-36830
X41910Y-39370
X41910Y-41910
X41910Y-44450
X41910Y-46990
X41910Y-49530
X41910Y-52070
X28520Y-57150
X28520Y-63650
X33020Y-57150
X33020Y-63650
X83820Y-69700
X83820Y-76200
X88320Y-69700
X88320Y-76200
X28520Y-68580
X28520Y-75080
X33020Y-68580
X33020Y-75080
T7
X68580Y-19050
X63500Y-19050
T8
X58542Y-29667
X61044Y-32169
X66040Y-29670
X71036Y-32169
X73538Y-29667
T9
X98425Y-20955
X98425Y-27305
X83820Y-20955
X83820Y-27305
T10
X61039Y-19672
X71041Y-19672
T11
X42280Y-61080
X51780Y-61080
X94350Y-39490
X103850Y-39490
X96890Y-72510
X106390Y-72510
X65140Y-61080
X74640Y-61080
X42200Y-104020
X51700Y-104020
X65060Y-104020
X74560Y-104020
X42280Y-82670
X51780Y-82670
X93000Y-100210
X102500Y-100210
X65140Y-82670
X74640Y-82670
X71490Y-39490
X80990Y-39490
T12
X107950Y-109220
X20320Y-109220
X107950Y-21590
X20320Y-21590
T0
M30
